<mxfile host="Electron" agent="Mozilla/5.0 (Windows NT 10.0; Win64; x64) AppleWebKit/537.36 (KHTML, like Gecko) draw.io/24.7.17 Chrome/128.0.6613.36 Electron/32.0.1 Safari/537.36" version="24.7.17">
  <diagram name="Page-1" id="EsoRJWbZ1l5PrF0TK8KT">
    <mxGraphModel dx="3693" dy="3007" grid="1" gridSize="10" guides="1" tooltips="1" connect="1" arrows="1" fold="1" page="1" pageScale="1" pageWidth="827" pageHeight="1169" math="0" shadow="0">
      <root>
        <mxCell id="0" />
        <mxCell id="1" parent="0" />
        <mxCell id="BLGUni3mZ7RtyVDNocvc-2" value="" style="rounded=0;whiteSpace=wrap;html=1;" parent="1" vertex="1">
          <mxGeometry x="-70" y="-40" width="670" height="460" as="geometry" />
        </mxCell>
        <mxCell id="BLGUni3mZ7RtyVDNocvc-4" value="chiffre clÃ©e" style="rounded=0;whiteSpace=wrap;html=1;" parent="1" vertex="1">
          <mxGeometry x="-70" y="30" width="140" height="390" as="geometry" />
        </mxCell>
        <mxCell id="BLGUni3mZ7RtyVDNocvc-5" value="Titre" style="rounded=0;whiteSpace=wrap;html=1;" parent="1" vertex="1">
          <mxGeometry y="-40" width="240" height="50" as="geometry" />
        </mxCell>
        <mxCell id="BLGUni3mZ7RtyVDNocvc-6" value="img" style="whiteSpace=wrap;html=1;aspect=fixed;" parent="1" vertex="1">
          <mxGeometry x="340" y="-20" width="170" height="170" as="geometry" />
        </mxCell>
        <mxCell id="BLGUni3mZ7RtyVDNocvc-8" value="text" style="rounded=0;whiteSpace=wrap;html=1;" parent="1" vertex="1">
          <mxGeometry x="100" y="30" width="210" height="230" as="geometry" />
        </mxCell>
        <mxCell id="BLGUni3mZ7RtyVDNocvc-9" value="img" style="whiteSpace=wrap;html=1;aspect=fixed;" parent="1" vertex="1">
          <mxGeometry x="450" y="190" width="150" height="150" as="geometry" />
        </mxCell>
        <mxCell id="BLGUni3mZ7RtyVDNocvc-10" value="img" style="whiteSpace=wrap;html=1;aspect=fixed;" parent="1" vertex="1">
          <mxGeometry x="310" y="280" width="140" height="140" as="geometry" />
        </mxCell>
        <mxCell id="BLGUni3mZ7RtyVDNocvc-11" value="img" style="whiteSpace=wrap;html=1;aspect=fixed;" parent="1" vertex="1">
          <mxGeometry x="110" y="270" width="150" height="150" as="geometry" />
        </mxCell>
        <mxCell id="BLGUni3mZ7RtyVDNocvc-12" value="type Sae" style="rounded=0;whiteSpace=wrap;html=1;" parent="1" vertex="1">
          <mxGeometry x="-30" y="-230" width="120" height="60" as="geometry" />
        </mxCell>
        <mxCell id="BLGUni3mZ7RtyVDNocvc-13" style="edgeStyle=orthogonalEdgeStyle;rounded=0;orthogonalLoop=1;jettySize=auto;html=1;entryX=0.527;entryY=0.003;entryDx=0;entryDy=0;entryPerimeter=0;" parent="1" source="BLGUni3mZ7RtyVDNocvc-12" target="BLGUni3mZ7RtyVDNocvc-2" edge="1">
          <mxGeometry relative="1" as="geometry">
            <Array as="points">
              <mxPoint x="-10" y="-60" />
              <mxPoint x="283" y="-60" />
            </Array>
          </mxGeometry>
        </mxCell>
        <mxCell id="BLGUni3mZ7RtyVDNocvc-15" value="" style="rounded=0;whiteSpace=wrap;html=1;" parent="1" vertex="1">
          <mxGeometry x="-50" y="-1370" width="670" height="460" as="geometry" />
        </mxCell>
        <mxCell id="BLGUni3mZ7RtyVDNocvc-16" value="teste" style="ellipse;whiteSpace=wrap;html=1;aspect=fixed;" parent="1" vertex="1">
          <mxGeometry x="420" y="-1350" width="170" height="170" as="geometry" />
        </mxCell>
        <mxCell id="BLGUni3mZ7RtyVDNocvc-17" value="competence langage" style="rounded=1;whiteSpace=wrap;html=1;arcSize=18;" parent="1" vertex="1">
          <mxGeometry x="410" y="-1140" width="210" height="230" as="geometry" />
        </mxCell>
        <mxCell id="BLGUni3mZ7RtyVDNocvc-18" value="text de presentaion" style="rounded=0;whiteSpace=wrap;html=1;" parent="1" vertex="1">
          <mxGeometry x="35" y="-1250" width="300" height="200" as="geometry" />
        </mxCell>
        <mxCell id="BLGUni3mZ7RtyVDNocvc-20" value="logciel Maitriser&amp;nbsp;" style="rounded=1;whiteSpace=wrap;html=1;" parent="1" vertex="1">
          <mxGeometry x="-45" y="-1000" width="460" height="70" as="geometry" />
        </mxCell>
        <mxCell id="BLGUni3mZ7RtyVDNocvc-22" value="" style="rounded=0;whiteSpace=wrap;html=1;" parent="1" vertex="1">
          <mxGeometry x="-1680" y="-1360" width="670" height="460" as="geometry" />
        </mxCell>
        <mxCell id="BLGUni3mZ7RtyVDNocvc-23" value="me contacter" style="rounded=0;whiteSpace=wrap;html=1;" parent="1" vertex="1">
          <mxGeometry x="-1430" y="-1340" width="160" height="40" as="geometry" />
        </mxCell>
        <mxCell id="BLGUni3mZ7RtyVDNocvc-25" value="mail" style="rounded=0;whiteSpace=wrap;html=1;" parent="1" vertex="1">
          <mxGeometry x="-1580" y="-1150" width="120" height="60" as="geometry" />
        </mxCell>
        <mxCell id="BLGUni3mZ7RtyVDNocvc-26" value="linkdine" style="rounded=0;whiteSpace=wrap;html=1;" parent="1" vertex="1">
          <mxGeometry x="-1300" y="-1210" width="120" height="60" as="geometry" />
        </mxCell>
        <mxCell id="BLGUni3mZ7RtyVDNocvc-27" value="Github" style="rounded=0;whiteSpace=wrap;html=1;" parent="1" vertex="1">
          <mxGeometry x="-1300" y="-1100" width="120" height="60" as="geometry" />
        </mxCell>
        <mxCell id="BLGUni3mZ7RtyVDNocvc-29" value="page de pres" style="rounded=0;whiteSpace=wrap;html=1;" parent="1" vertex="1">
          <mxGeometry x="-46" y="-1360" width="225" height="60" as="geometry" />
        </mxCell>
      </root>
    </mxGraphModel>
  </diagram>
</mxfile>
